<mxfile host="app.diagrams.net" modified="2023-04-07T06:40:48.403Z" agent="Mozilla/5.0 (Windows NT 10.0; Win64; x64) AppleWebKit/537.36 (KHTML, like Gecko) Chrome/111.0.0.0 Safari/537.36 Edg/111.0.1661.62" etag="woO9bCVwI4GOehlhnK8_" version="21.1.5" type="github">
  <diagram name="Страница 1" id="LQKPSqE4vnAQmoSP-NEP">
    <mxGraphModel dx="1377" dy="756" grid="1" gridSize="10" guides="1" tooltips="1" connect="1" arrows="1" fold="1" page="1" pageScale="1" pageWidth="827" pageHeight="1169" math="0" shadow="0">
      <root>
        <mxCell id="0" />
        <mxCell id="1" parent="0" />
        <mxCell id="SX6F0-9BtOAjzvchPJpp-1" value="messame" style="swimlane;whiteSpace=wrap;html=1;" vertex="1" parent="1">
          <mxGeometry x="600" y="50" width="200" height="200" as="geometry" />
        </mxCell>
        <mxCell id="SX6F0-9BtOAjzvchPJpp-2" value="user id" style="rounded=0;whiteSpace=wrap;html=1;" vertex="1" parent="SX6F0-9BtOAjzvchPJpp-1">
          <mxGeometry x="30" y="30" width="120" height="20" as="geometry" />
        </mxCell>
        <mxCell id="SX6F0-9BtOAjzvchPJpp-3" value="chat id" style="rounded=0;whiteSpace=wrap;html=1;strokeColor=#FF0505;" vertex="1" parent="SX6F0-9BtOAjzvchPJpp-1">
          <mxGeometry x="30" y="60" width="120" height="20" as="geometry" />
        </mxCell>
        <mxCell id="SX6F0-9BtOAjzvchPJpp-4" value="message" style="rounded=0;whiteSpace=wrap;html=1;" vertex="1" parent="SX6F0-9BtOAjzvchPJpp-1">
          <mxGeometry x="30" y="90" width="120" height="20" as="geometry" />
        </mxCell>
        <mxCell id="SX6F0-9BtOAjzvchPJpp-5" value="date" style="rounded=0;whiteSpace=wrap;html=1;" vertex="1" parent="SX6F0-9BtOAjzvchPJpp-1">
          <mxGeometry x="30" y="120" width="120" height="20" as="geometry" />
        </mxCell>
        <mxCell id="SX6F0-9BtOAjzvchPJpp-54" value="" style="endArrow=classic;html=1;rounded=0;entryX=1;entryY=0.25;entryDx=0;entryDy=0;" edge="1" parent="SX6F0-9BtOAjzvchPJpp-1" target="SX6F0-9BtOAjzvchPJpp-36">
          <mxGeometry width="50" height="50" relative="1" as="geometry">
            <mxPoint y="30" as="sourcePoint" />
            <mxPoint x="50" y="-20" as="targetPoint" />
          </mxGeometry>
        </mxCell>
        <mxCell id="SX6F0-9BtOAjzvchPJpp-7" value="user" style="swimlane;whiteSpace=wrap;html=1;" vertex="1" parent="1">
          <mxGeometry x="600" y="280" width="200" height="200" as="geometry" />
        </mxCell>
        <mxCell id="SX6F0-9BtOAjzvchPJpp-8" value="user id 1" style="rounded=0;whiteSpace=wrap;html=1;" vertex="1" parent="SX6F0-9BtOAjzvchPJpp-7">
          <mxGeometry x="30" y="30" width="120" height="20" as="geometry" />
        </mxCell>
        <mxCell id="SX6F0-9BtOAjzvchPJpp-9" value="user name" style="rounded=0;whiteSpace=wrap;html=1;" vertex="1" parent="SX6F0-9BtOAjzvchPJpp-7">
          <mxGeometry x="30" y="60" width="120" height="20" as="geometry" />
        </mxCell>
        <mxCell id="SX6F0-9BtOAjzvchPJpp-10" value="" style="rounded=0;whiteSpace=wrap;html=1;" vertex="1" parent="SX6F0-9BtOAjzvchPJpp-7">
          <mxGeometry x="30" y="90" width="120" height="20" as="geometry" />
        </mxCell>
        <mxCell id="SX6F0-9BtOAjzvchPJpp-11" value="" style="rounded=0;whiteSpace=wrap;html=1;" vertex="1" parent="SX6F0-9BtOAjzvchPJpp-7">
          <mxGeometry x="30" y="120" width="120" height="20" as="geometry" />
        </mxCell>
        <mxCell id="SX6F0-9BtOAjzvchPJpp-12" value="" style="rounded=0;whiteSpace=wrap;html=1;" vertex="1" parent="SX6F0-9BtOAjzvchPJpp-7">
          <mxGeometry x="30" y="150" width="120" height="20" as="geometry" />
        </mxCell>
        <mxCell id="SX6F0-9BtOAjzvchPJpp-13" value="user" style="swimlane;whiteSpace=wrap;html=1;" vertex="1" parent="1">
          <mxGeometry x="600" y="500" width="200" height="200" as="geometry" />
        </mxCell>
        <mxCell id="SX6F0-9BtOAjzvchPJpp-14" value="user id 2" style="rounded=0;whiteSpace=wrap;html=1;" vertex="1" parent="SX6F0-9BtOAjzvchPJpp-13">
          <mxGeometry x="30" y="30" width="120" height="20" as="geometry" />
        </mxCell>
        <mxCell id="SX6F0-9BtOAjzvchPJpp-37" value="user name" style="rounded=0;whiteSpace=wrap;html=1;" vertex="1" parent="SX6F0-9BtOAjzvchPJpp-13">
          <mxGeometry x="30" y="75" width="120" height="20" as="geometry" />
        </mxCell>
        <mxCell id="SX6F0-9BtOAjzvchPJpp-23" value="Chat" style="swimlane;whiteSpace=wrap;html=1;" vertex="1" parent="1">
          <mxGeometry x="30" y="20" width="490" height="470" as="geometry" />
        </mxCell>
        <mxCell id="SX6F0-9BtOAjzvchPJpp-22" value="Chat id 1" style="rounded=0;whiteSpace=wrap;html=1;" vertex="1" parent="SX6F0-9BtOAjzvchPJpp-23">
          <mxGeometry x="20" y="30" width="90" height="30" as="geometry" />
        </mxCell>
        <mxCell id="SX6F0-9BtOAjzvchPJpp-24" value="name chat" style="rounded=0;whiteSpace=wrap;html=1;" vertex="1" parent="SX6F0-9BtOAjzvchPJpp-23">
          <mxGeometry x="330" y="30" width="90" height="30" as="geometry" />
        </mxCell>
        <mxCell id="SX6F0-9BtOAjzvchPJpp-25" value="user id3, user id2, user id1..." style="rounded=0;whiteSpace=wrap;html=1;" vertex="1" parent="SX6F0-9BtOAjzvchPJpp-23">
          <mxGeometry x="130" y="30" width="160" height="30" as="geometry" />
        </mxCell>
        <mxCell id="SX6F0-9BtOAjzvchPJpp-36" value="message" style="rounded=1;whiteSpace=wrap;html=1;" vertex="1" parent="SX6F0-9BtOAjzvchPJpp-23">
          <mxGeometry x="170" y="120" width="300" height="60" as="geometry" />
        </mxCell>
        <mxCell id="SX6F0-9BtOAjzvchPJpp-39" value="user name" style="text;html=1;strokeColor=none;fillColor=none;align=center;verticalAlign=middle;whiteSpace=wrap;rounded=0;" vertex="1" parent="SX6F0-9BtOAjzvchPJpp-23">
          <mxGeometry x="180" y="150" width="60" height="30" as="geometry" />
        </mxCell>
        <mxCell id="SX6F0-9BtOAjzvchPJpp-40" value="date" style="text;html=1;strokeColor=none;fillColor=none;align=center;verticalAlign=middle;whiteSpace=wrap;rounded=0;" vertex="1" parent="SX6F0-9BtOAjzvchPJpp-23">
          <mxGeometry x="410" y="150" width="60" height="30" as="geometry" />
        </mxCell>
        <mxCell id="SX6F0-9BtOAjzvchPJpp-42" value="message" style="rounded=1;whiteSpace=wrap;html=1;" vertex="1" parent="SX6F0-9BtOAjzvchPJpp-23">
          <mxGeometry x="220" y="210" width="250" height="60" as="geometry" />
        </mxCell>
        <mxCell id="SX6F0-9BtOAjzvchPJpp-43" value="user name" style="text;html=1;strokeColor=none;fillColor=none;align=center;verticalAlign=middle;whiteSpace=wrap;rounded=0;" vertex="1" parent="SX6F0-9BtOAjzvchPJpp-23">
          <mxGeometry x="240" y="240" width="60" height="30" as="geometry" />
        </mxCell>
        <mxCell id="SX6F0-9BtOAjzvchPJpp-44" value="date" style="text;html=1;strokeColor=none;fillColor=none;align=center;verticalAlign=middle;whiteSpace=wrap;rounded=0;" vertex="1" parent="SX6F0-9BtOAjzvchPJpp-23">
          <mxGeometry x="410" y="240" width="60" height="30" as="geometry" />
        </mxCell>
        <mxCell id="SX6F0-9BtOAjzvchPJpp-45" value="message" style="rounded=1;whiteSpace=wrap;html=1;" vertex="1" parent="SX6F0-9BtOAjzvchPJpp-23">
          <mxGeometry x="20" y="330" width="220" height="50" as="geometry" />
        </mxCell>
        <mxCell id="SX6F0-9BtOAjzvchPJpp-46" value="user name" style="text;html=1;strokeColor=none;fillColor=none;align=center;verticalAlign=middle;whiteSpace=wrap;rounded=0;" vertex="1" parent="SX6F0-9BtOAjzvchPJpp-23">
          <mxGeometry x="30" y="350" width="60" height="30" as="geometry" />
        </mxCell>
        <mxCell id="SX6F0-9BtOAjzvchPJpp-47" value="date" style="text;html=1;strokeColor=none;fillColor=none;align=center;verticalAlign=middle;whiteSpace=wrap;rounded=0;" vertex="1" parent="SX6F0-9BtOAjzvchPJpp-23">
          <mxGeometry x="180" y="350" width="60" height="30" as="geometry" />
        </mxCell>
        <mxCell id="SX6F0-9BtOAjzvchPJpp-48" value="user editor texr" style="rounded=0;whiteSpace=wrap;html=1;" vertex="1" parent="SX6F0-9BtOAjzvchPJpp-23">
          <mxGeometry y="410" width="490" height="60" as="geometry" />
        </mxCell>
        <mxCell id="SX6F0-9BtOAjzvchPJpp-26" value="user" style="swimlane;whiteSpace=wrap;html=1;" vertex="1" parent="1">
          <mxGeometry x="340" y="500" width="200" height="200" as="geometry" />
        </mxCell>
        <mxCell id="SX6F0-9BtOAjzvchPJpp-27" value="user id 3" style="rounded=0;whiteSpace=wrap;html=1;" vertex="1" parent="SX6F0-9BtOAjzvchPJpp-26">
          <mxGeometry x="30" y="30" width="120" height="20" as="geometry" />
        </mxCell>
        <mxCell id="SX6F0-9BtOAjzvchPJpp-38" value="user name" style="rounded=0;whiteSpace=wrap;html=1;" vertex="1" parent="SX6F0-9BtOAjzvchPJpp-26">
          <mxGeometry x="30" y="75" width="120" height="20" as="geometry" />
        </mxCell>
        <mxCell id="SX6F0-9BtOAjzvchPJpp-53" value="" style="endArrow=classic;html=1;rounded=0;exitX=0;exitY=0.25;exitDx=0;exitDy=0;entryX=1;entryY=0;entryDx=0;entryDy=0;" edge="1" parent="1" source="SX6F0-9BtOAjzvchPJpp-1" target="SX6F0-9BtOAjzvchPJpp-47">
          <mxGeometry width="50" height="50" relative="1" as="geometry">
            <mxPoint x="560" y="60" as="sourcePoint" />
            <mxPoint x="610" y="10" as="targetPoint" />
          </mxGeometry>
        </mxCell>
        <mxCell id="SX6F0-9BtOAjzvchPJpp-55" value="" style="endArrow=classic;html=1;rounded=0;entryX=1;entryY=0;entryDx=0;entryDy=0;" edge="1" parent="1" target="SX6F0-9BtOAjzvchPJpp-44">
          <mxGeometry width="50" height="50" relative="1" as="geometry">
            <mxPoint x="600" y="140" as="sourcePoint" />
            <mxPoint x="580" y="200" as="targetPoint" />
          </mxGeometry>
        </mxCell>
        <mxCell id="SX6F0-9BtOAjzvchPJpp-51" value="" style="endArrow=classic;html=1;rounded=0;entryX=1;entryY=0.5;entryDx=0;entryDy=0;exitX=-0.005;exitY=0.07;exitDx=0;exitDy=0;exitPerimeter=0;strokeColor=#FF1222;" edge="1" parent="1" source="SX6F0-9BtOAjzvchPJpp-13" target="SX6F0-9BtOAjzvchPJpp-47">
          <mxGeometry width="50" height="50" relative="1" as="geometry">
            <mxPoint x="630" y="540" as="sourcePoint" />
            <mxPoint x="520" y="470" as="targetPoint" />
            <Array as="points">
              <mxPoint x="520" y="470" />
              <mxPoint x="600" y="250" />
            </Array>
          </mxGeometry>
        </mxCell>
        <mxCell id="SX6F0-9BtOAjzvchPJpp-57" value="" style="endArrow=classic;html=1;rounded=0;entryX=0.394;entryY=1.067;entryDx=0;entryDy=0;entryPerimeter=0;exitX=0.075;exitY=0;exitDx=0;exitDy=0;exitPerimeter=0;strokeColor=#00FF1A;" edge="1" parent="1" source="SX6F0-9BtOAjzvchPJpp-27" target="SX6F0-9BtOAjzvchPJpp-25">
          <mxGeometry width="50" height="50" relative="1" as="geometry">
            <mxPoint x="390" y="410" as="sourcePoint" />
            <mxPoint x="440" y="360" as="targetPoint" />
          </mxGeometry>
        </mxCell>
        <mxCell id="SX6F0-9BtOAjzvchPJpp-58" value="" style="endArrow=classic;html=1;rounded=0;entryX=0.5;entryY=1;entryDx=0;entryDy=0;exitX=0;exitY=0;exitDx=0;exitDy=0;strokeColor=#00FFAA;" edge="1" parent="1" source="SX6F0-9BtOAjzvchPJpp-14" target="SX6F0-9BtOAjzvchPJpp-25">
          <mxGeometry width="50" height="50" relative="1" as="geometry">
            <mxPoint x="408" y="510" as="sourcePoint" />
            <mxPoint x="233" y="92" as="targetPoint" />
          </mxGeometry>
        </mxCell>
        <mxCell id="SX6F0-9BtOAjzvchPJpp-59" value="" style="endArrow=classic;html=1;rounded=0;entryX=0.656;entryY=1.1;entryDx=0;entryDy=0;entryPerimeter=0;exitX=0;exitY=0.5;exitDx=0;exitDy=0;strokeColor=#05FF7A;" edge="1" parent="1" source="SX6F0-9BtOAjzvchPJpp-8" target="SX6F0-9BtOAjzvchPJpp-25">
          <mxGeometry width="50" height="50" relative="1" as="geometry">
            <mxPoint x="418" y="520" as="sourcePoint" />
            <mxPoint x="243" y="102" as="targetPoint" />
          </mxGeometry>
        </mxCell>
        <mxCell id="SX6F0-9BtOAjzvchPJpp-61" value="" style="endArrow=classic;html=1;rounded=0;entryX=1;entryY=1;entryDx=0;entryDy=0;exitX=0;exitY=0.25;exitDx=0;exitDy=0;strokeColor=#FF00CC;" edge="1" parent="1" source="SX6F0-9BtOAjzvchPJpp-3" target="SX6F0-9BtOAjzvchPJpp-22">
          <mxGeometry width="50" height="50" relative="1" as="geometry">
            <mxPoint x="390" y="410" as="sourcePoint" />
            <mxPoint x="440" y="360" as="targetPoint" />
          </mxGeometry>
        </mxCell>
      </root>
    </mxGraphModel>
  </diagram>
</mxfile>
